<?xml version="1.0" encoding="utf-8"?>
<!-- Generator: Adobe Illustrator 17.1.0, SVG Export Plug-In . SVG Version: 6.00 Build 0)  -->
<!DOCTYPE svg PUBLIC "-//W3C//DTD SVG 1.1//EN" "http://www.w3.org/Graphics/SVG/1.1/DTD/svg11.dtd">
<svg version="1.1" id="Layer_1" xmlns="http://www.w3.org/2000/svg" xmlns:xlink="http://www.w3.org/1999/xlink" x="0px" y="0px"
	 viewBox="0 0 406 111" enable-background="new 0 0 406 111" xml:space="preserve">
<path fill="#FFFFFF" d="M93,9.89v92.22H0.78V9.89H93z M9.94,45.75v47.21H25.7V51L9.94,45.75z M58.92,92.96V44.4l24.92-8.3V19.05
	H9.94v17.04l24.92,8.31v48.56H58.92z M83.84,45.75L68.08,51v41.96h15.76V45.75z"/>
<g>
	<path fill-rule="evenodd" clip-rule="evenodd" fill="#FFFFFF" d="M140.93,64.27c-2.95,12.9,2.93,22.08,16.89,22.08
		c15.31,0,25.24-7.04,28.72-22.08c3.02-13.06-2.69-22.16-16.98-22.16C152.13,42.11,143.92,51.2,140.93,64.27z M166.89,52.69
		c5.38,0,7.04,2.81,5.06,11.23c-2.06,8.74-5.94,11.55-11.22,11.55c-4.55,0-6.79-3.19-4.9-11.37
		C157.77,55.75,161.84,52.69,166.89,52.69z"/>
	<path fill-rule="evenodd" clip-rule="evenodd" fill="#FFFFFF" d="M231.04,102.08c-4.74,0-9.31-0.73-12.34-1.75l2.59-11.37
		c2.28,0.95,7.27,2.01,10.88,2.01c3.84-0.01,7.29-2.04,8.23-6.52l0.48-2.01l-0.27,0.2c-1.32,1.56-7.25,2.7-12.33,2.7
		c-13.13,0-14.58-11.56-12.61-20.82C218.55,51,227,42.54,236.87,42.54c6,0,8.5,1.8,12.25,5.17l0.15,0l0.96-3.97h14.45l-9.03,39.3
		C252.17,98.04,244.68,102.08,231.04,102.08z M244.84,64.9c-1.23,5.74-3.8,10.46-9.27,10.46c-6.27,0-5.1-8.23-4.26-12.09
		c0.88-4.07,3.54-9.33,9.3-9.33C244.41,53.94,246.08,59.11,244.84,64.9z"/>
	<path fill-rule="evenodd" clip-rule="evenodd" fill="#FFFFFF" d="M192.81,43.64h13.88l-1.15,5.21l0,0
		c4.81-5.33,9.53-6.16,13.4-6.27c1.97-0.06,3.16-0.12,3.53,0.26l-2.71,11.92c-0.93-0.15-2.93,0.39-4.64,0.76
		c-6.33,1.4-11.53,6.46-13.59,14.87c-0.43,1.74-3.24,14.68-3.24,14.68h-15L192.81,43.64z"/>
	<polygon fill-rule="evenodd" clip-rule="evenodd" fill="#FFFFFF" points="333.22,23.57 319.02,85.07 304.02,85.07 318.23,23.57 	
		"/>
	<path fill-rule="evenodd" clip-rule="evenodd" fill="#FFFFFF" d="M375.36,43.64h13.89l-1.15,5.21l0,0
		c4.81-5.33,9.53-6.16,13.4-6.27c1.97-0.06,3.16-0.12,3.53,0.26l-2.71,11.92c-0.93-0.15-2.93,0.39-4.64,0.76
		c-6.33,1.4-11.53,6.46-13.59,14.87c-0.43,1.74-3.24,14.68-3.24,14.68h-15L375.36,43.64z"/>
	<polygon fill-rule="evenodd" clip-rule="evenodd" fill="#FFFFFF" points="165.9,23.59 112.68,23.59 109.21,38.35 127.8,38.35 
		116.99,85.07 133.2,85.07 143.94,38.35 162.5,38.35 	"/>
	<path fill-rule="evenodd" clip-rule="evenodd" fill="#FFFFFF" d="M276.76,102.08c-4.74,0-9.31-0.73-12.33-1.75l2.59-11.37
		c2.28,0.95,7.27,2.01,10.88,2.01c3.84-0.01,7.29-2.04,8.23-6.52l0.48-2.01l-0.27,0.2c-1.32,1.56-7.25,2.7-12.33,2.7
		c-13.13,0-14.57-11.56-12.61-20.82c2.87-13.51,11.32-21.97,21.19-21.97c6,0,8.5,1.8,12.25,5.17l0.15,0l0.96-3.97h14.45l-9.03,39.3
		C297.89,98.04,290.4,102.08,276.76,102.08z M290.57,64.9c-1.23,5.74-3.8,10.46-9.27,10.46c-6.27,0-5.1-8.23-4.26-12.09
		c0.88-4.07,3.54-9.33,9.3-9.33C290.13,53.94,291.81,59.11,290.57,64.9z"/>
	<path fill-rule="evenodd" clip-rule="evenodd" fill="#FFFFFF" d="M340.91,60.24c0.54-2.68,3.15-7.74,9.27-7.74
		c5.54,0,5.85,3.95,5.13,7.74H340.91z M352.39,74.05c-1.45,2.02-3.97,3.46-7.06,3.46c-6.73,0-7.34-4.71-6.34-9.19h29.14
		c0.26-0.86,0.59-2.42,0.85-3.56c2.98-13.36-2.33-22.35-17.15-22.35c-13.71,0-23.62,8.63-26.64,21.54
		c-3.03,12.95,2.99,22.83,18.93,22.83c11.78,0,20.41-5.61,22.21-12.68L352.39,74.05z"/>
</g>
</svg>
