<?xml version="1.0" encoding="utf-8"?>
<!-- Generator: Adobe Illustrator 17.1.0, SVG Export Plug-In . SVG Version: 6.00 Build 0)  -->
<!DOCTYPE svg PUBLIC "-//W3C//DTD SVG 1.1//EN" "http://www.w3.org/Graphics/SVG/1.1/DTD/svg11.dtd">
<svg version="1.1" id="Layer_1" xmlns="http://www.w3.org/2000/svg" xmlns:xlink="http://www.w3.org/1999/xlink" x="0px" y="0px"
	 viewBox="0 0 300 300" enable-background="new 0 0 300 300" xml:space="preserve">
<path fill="#FFFFFF" d="M192.88,75.28v83.52h-83.52V75.28H192.88z M117.65,107.75v42.76h14.27v-38L117.65,107.75z M162.02,150.5
	v-43.98l22.57-7.52V83.57h-66.93V99l22.57,7.52v43.98H162.02z M184.59,107.75l-14.27,4.75v38h14.27V107.75z"/>
<g>
	<path fill-rule="evenodd" clip-rule="evenodd" fill="#FFFFFF" d="M45.89,190.07c-2.67,11.68,2.65,20,15.29,20
		c13.87,0,22.86-6.38,26.01-20c2.74-11.83-2.44-20.07-15.38-20.07C56.04,170.01,48.6,178.24,45.89,190.07z M69.41,179.59
		c4.87,0,6.38,2.55,4.58,10.17c-1.87,7.92-5.38,10.46-10.16,10.46c-4.12,0-6.15-2.89-4.44-10.29
		C61.14,182.36,64.83,179.59,69.41,179.59z"/>
	<path fill-rule="evenodd" clip-rule="evenodd" fill="#FFFFFF" d="M127.5,224.31c-4.29,0-8.43-0.67-11.17-1.59l2.35-10.3
		c2.07,0.86,6.59,1.82,9.85,1.82c3.47-0.01,6.61-1.85,7.46-5.91l0.43-1.82l-0.24,0.18c-1.19,1.41-6.56,2.45-11.17,2.45
		c-11.89,0-13.2-10.47-11.42-18.85c2.6-12.24,10.25-19.9,19.19-19.9c5.43,0,7.69,1.63,11.09,4.69l0.13,0l0.87-3.6h13.09l-8.18,35.59
		C146.64,220.66,139.85,224.31,127.5,224.31z M140,190.64c-1.11,5.2-3.44,9.48-8.39,9.48c-5.68,0-4.62-7.46-3.86-10.95
		c0.8-3.69,3.2-8.45,8.42-8.45C139.61,180.72,141.12,185.4,140,190.64z"/>
	<path fill-rule="evenodd" clip-rule="evenodd" fill="#FFFFFF" d="M92.87,171.39h12.57l-1.04,4.72l0,0
		c4.35-4.82,8.63-5.58,12.14-5.68c1.79-0.05,2.86-0.11,3.2,0.24l-2.45,10.79c-0.85-0.14-2.65,0.35-4.2,0.69
		c-5.73,1.26-10.44,5.85-12.31,13.46c-0.39,1.58-2.94,13.29-2.94,13.29H84.27L92.87,171.39z"/>
	<polygon fill-rule="evenodd" clip-rule="evenodd" fill="#FFFFFF" points="220.04,153.21 207.18,208.91 193.6,208.91 206.46,153.21 
			"/>
	<path fill-rule="evenodd" clip-rule="evenodd" fill="#FFFFFF" d="M258.21,171.39h12.58l-1.04,4.72l0,0
		c4.35-4.82,8.63-5.58,12.14-5.68c1.79-0.05,2.86-0.11,3.2,0.24l-2.45,10.79c-0.85-0.14-2.65,0.35-4.2,0.69
		c-5.73,1.26-10.44,5.85-12.31,13.46c-0.39,1.58-2.94,13.29-2.94,13.29H249.6L258.21,171.39z"/>
	<polygon fill-rule="evenodd" clip-rule="evenodd" fill="#FFFFFF" points="68.5,153.23 20.31,153.23 17.16,166.6 34,166.6 
		24.21,208.91 38.89,208.91 48.62,166.6 65.42,166.6 	"/>
	<path fill-rule="evenodd" clip-rule="evenodd" fill="#FFFFFF" d="M168.91,224.31c-4.29,0-8.43-0.67-11.17-1.59l2.35-10.3
		c2.06,0.86,6.58,1.82,9.85,1.82c3.48-0.01,6.61-1.85,7.46-5.91l0.43-1.82l-0.24,0.18c-1.19,1.41-6.56,2.45-11.17,2.45
		c-11.89,0-13.2-10.47-11.42-18.85c2.6-12.24,10.25-19.9,19.19-19.9c5.43,0,7.69,1.63,11.1,4.69l0.13,0l0.87-3.6h13.09l-8.18,35.59
		C188.05,220.66,181.26,224.31,168.91,224.31z M181.41,190.64c-1.11,5.2-3.44,9.48-8.39,9.48c-5.68,0-4.62-7.46-3.86-10.95
		c0.8-3.69,3.2-8.45,8.42-8.45C181.02,180.72,182.53,185.4,181.41,190.64z"/>
	<path fill-rule="evenodd" clip-rule="evenodd" fill="#FFFFFF" d="M227.01,186.42c0.49-2.43,2.85-7.01,8.4-7.01
		c5.02,0,5.3,3.58,4.65,7.01H227.01z M237.4,198.93c-1.31,1.83-3.59,3.14-6.39,3.14c-6.09,0-6.65-4.27-5.75-8.32h26.39
		c0.24-0.78,0.54-2.19,0.77-3.22c2.7-12.1-2.11-20.25-15.54-20.25c-12.42,0-21.39,7.81-24.12,19.51
		c-2.74,11.73,2.71,20.67,17.15,20.67c10.67,0,18.48-5.09,20.11-11.48L237.4,198.93z"/>
</g>
</svg>
