<?xml version="1.0" encoding="utf-8"?>
<!-- Generator: Adobe Illustrator 17.0.2, SVG Export Plug-In . SVG Version: 6.00 Build 0)  -->
<!DOCTYPE svg PUBLIC "-//W3C//DTD SVG 1.1//EN" "http://www.w3.org/Graphics/SVG/1.1/DTD/svg11.dtd">
<svg version="1.1" id="Layer_1" xmlns="http://www.w3.org/2000/svg" xmlns:xlink="http://www.w3.org/1999/xlink" x="0px" y="0px"
	 width="176.638px" height="57px" viewBox="0 0 176.638 57" enable-background="new 0 0 176.638 57" xml:space="preserve">
<g>
	<path fill="#FFFFFF" d="M58.446,28.635c0.032,1.14,0.449,1.701,1.508,1.701c0.898,0,1.38-0.545,1.38-1.38
		c0-1.958-5.134-0.994-5.134-4.877c0-2.198,1.379-3.594,3.641-3.594c2.198,0,3.418,1.028,3.771,3.306h-2.375
		c-0.031-0.787-0.513-1.284-1.299-1.284c-0.77,0-1.235,0.561-1.235,1.267c0,2.07,5.134,0.818,5.134,5.215
		c0,2.165-1.669,3.497-3.931,3.497c-2.712,0-3.899-1.428-3.899-3.85L58.446,28.635L58.446,28.635z"/>
	<path fill="#FFFFFF" d="M73.271,32.293h-2.47l-0.61-2.215h-2.727l-0.578,2.215h-2.47l3.24-11.616h2.247L73.271,32.293z
		 M68.827,24.078h-0.032l-0.738,3.754h1.508L68.827,24.078z"/>
	<path fill="#FFFFFF" d="M74.426,20.677h2.439v9.37h3.112v2.246h-5.551V20.677z"/>
	<path fill="#FFFFFF" d="M85.321,20.484c2.92,0,4.363,2.375,4.363,6.001s-1.444,6-4.363,6c-2.921,0-4.364-2.374-4.364-6
		S82.401,20.484,85.321,20.484z M85.321,30.239c1.251,0,1.86-1.027,1.86-3.754s-0.609-3.754-1.86-3.754s-1.861,1.027-1.861,3.754
		S84.07,30.239,85.321,30.239z"/>
	<path fill="#FFFFFF" d="M98.96,20.677v11.616h-2.054l-3.434-7.733H93.44v7.733h-2.15V20.677h2.278l3.209,7.123h0.031v-7.123
		C96.808,20.677,98.96,20.677,98.96,20.677z"/>
	<path fill="#FFFFFF" d="M106.05,20.677h2.439v9.37h3.112v2.246h-5.551V20.677z"/>
	<path fill="#FFFFFF" d="M120.94,32.293h-2.47l-0.61-2.215h-2.727l-0.578,2.215h-2.47l3.24-11.616h2.247L120.94,32.293z
		 M116.496,24.078h-0.032l-0.739,3.754h1.508L116.496,24.078z"/>
	<path fill="#FFFFFF" d="M121.967,20.677h3.658c3,0,4.605,2.631,4.605,5.808s-1.604,5.808-4.605,5.808h-3.658
		C121.967,32.293,121.967,20.677,121.967,20.677z M124.406,30.047h1.187c1.397,0,2.134-1.445,2.134-3.562
		c0-2.118-0.737-3.562-2.134-3.562h-1.187V30.047z"/>
	<path fill="#FFFFFF" d="M139.583,20.677v8.278c0,2.054-1.058,3.53-3.914,3.53s-3.915-1.476-3.915-3.53v-8.278h2.439v7.894
		c0,1.155,0.384,1.668,1.476,1.668c1.091,0,1.476-0.513,1.476-1.668v-7.894C137.145,20.677,139.583,20.677,139.583,20.677z"/>
	<path fill="#FFFFFF" d="M141.59,20.677h3.85c2.086,0,3.466,1.733,3.466,3.739c0,1.299-0.69,2.952-2.407,3.192l2.92,4.685h-2.792
		l-2.567-4.524h-0.032v4.524h-2.438V20.677z M144.028,25.811h0.802c0.995,0,1.572-0.482,1.572-1.445
		c0-0.962-0.577-1.444-1.572-1.444h-0.802V25.811z"/>
	<path fill="#FFFFFF" d="M158.227,20.677v11.616h-2.054l-3.432-7.733h-0.032v7.733h-2.15V20.677h2.278l3.209,7.123h0.031v-7.123
		C156.077,20.677,158.227,20.677,158.227,20.677z"/>
	<path fill="#FFFFFF" d="M160.426,32.293V20.677h5.777v2.246h-3.337v2.15h3.337v2.247h-3.337v2.727h3.337v2.246H160.426z"/>
	<path fill="#FFFFFF" d="M168.337,20.677h3.85c2.086,0,3.466,1.733,3.466,3.739c0,1.299-0.69,2.952-2.407,3.192l2.92,4.685h-2.792
		l-2.567-4.524h-0.032v4.524h-2.438V20.677z M170.775,25.811h0.802c0.995,0,1.572-0.482,1.572-1.445
		c0-0.962-0.577-1.444-1.572-1.444h-0.802V25.811z"/>
</g>
<g>
	<path fill="#FFFFFF" d="M34.041,11.858c-0.074-0.121-0.15-0.249-0.23-0.382c-1.353-2.26-3.617-6.042-10.769-6.042
		c-8.31,0-16.712,6.29-19.127,14.319C1.334,28.336,3.653,34.46,6.054,38.086c2.423,3.661,7.9,9.812,17.36,9.88l0.11-0.734
		c-0.051-0.015-5.136-1.572-8.15-5.43c-3.406-4.361-3.876-10.619-3.36-13.761c0.538-3.283,3.005-3.961,4.04-4.1
		c0.125-0.017,0.258-0.025,0.397-0.025c1.778,0,4.273,1.36,5.869,2.525l0.25,0.182c1.773,1.297,4.2,3.072,6.239,3.35
		c0.561,0.076,1.076,0.113,1.577,0.113c1.51,0,2.784-0.352,3.789-1.047c1.682-1.163,3.181-2.819,2.771-7.029
		C36.54,17.834,35.146,13.663,34.041,11.858z M33.75,28.422c-0.877,0.606-2.009,0.913-3.363,0.913c-0.467,0-0.949-0.035-1.476-0.107
		c-1.851-0.252-4.19-1.963-5.898-3.212l-0.25-0.183c-0.611-0.446-3.786-2.669-6.311-2.669c-0.172,0-0.34,0.011-0.498,0.032
		c-0.937,0.126-4.043,0.839-4.68,4.722c-0.462,2.816-0.323,9.438,3.509,14.344c1.886,2.415,4.481,3.95,6.313,4.809
		c-7.283-0.869-11.823-5.481-14.417-9.399c-2.312-3.493-4.544-9.399-2.046-17.703c2.325-7.73,10.411-13.786,18.409-13.786
		c6.728,0,8.855,3.554,10.126,5.678c0.081,0.136,0.159,0.266,0.234,0.389c1.061,1.734,2.403,5.77,2.799,9.833
		C36.592,26.097,35.141,27.46,33.75,28.422z"/>
	<path fill="#FFFFFF" d="M21.55,27.882c0.247-0.412,0.012-0.866-0.311-1.115l-0.212-0.077c-0.503-0.022-0.975-0.293-1.521-0.608
		c-0.688-0.396-1.467-0.845-2.48-0.845c-0.255,0-0.518,0.029-0.781,0.087c-2.275,0.502-3.335,2.641-3.379,2.732l-0.011,0.303
		c0.031,0.077,0.783,1.883,3.379,1.883c0.169,0,0.345-0.008,0.531-0.025C18.609,30.051,21.279,28.333,21.55,27.882z M16.698,29.471
		c-2.017,0.181-2.839-0.851-3.071-1.245c0.272-0.464,1.185-1.818,2.78-2.17c0.209-0.046,0.418-0.07,0.619-0.07
		c0.812,0,1.47,0.379,2.106,0.745c0.537,0.309,1.091,0.628,1.716,0.696c0.023,0.027,0.042,0.055,0.051,0.075
		C20.582,27.839,18.32,29.325,16.698,29.471z"/>
	<circle fill="#FFFFFF" cx="16.763" cy="27.814" r="1.468"/>
	<path fill="#FFFFFF" d="M46.744,0H0.652L0.277,0.376l0.125,28.821c0,7.489,2.197,14.359,6.187,19.345
		c4.275,5.342,10.212,8.166,17.171,8.166c7.132,0,13.136-2.89,17.362-8.359c3.867-5.002,5.996-11.938,5.996-19.527V0.374L46.744,0z
		 M23.76,49.464c-12.466,0-22.609-10.198-22.609-22.734c0-12.535,10.142-22.733,22.609-22.733S46.369,14.195,46.369,26.73
		C46.369,39.266,36.227,49.464,23.76,49.464z M40.53,47.892c-4.079,5.278-9.878,8.067-16.769,8.067
		c-6.723,0-12.458-2.727-16.586-7.885c-3.092-3.864-5.073-8.903-5.755-14.49c2.924,9.615,11.832,16.629,22.34,16.629
		c10.444,0,19.307-6.927,22.287-16.45C45.334,39.223,43.44,44.126,40.53,47.892z M23.76,3.247c-10.902,0-20.082,7.549-22.644,17.72
		L1.028,0.749h45.341v20.074C43.757,10.725,34.611,3.247,23.76,3.247z"/>
	<path fill="#FFFFFF" d="M26.856,36.175c-0.134-0.022-0.27-0.034-0.405-0.034c-0.972,0-1.744,0.572-2.144,0.946
		c-0.388-0.372-1.155-0.918-2.315-0.918c-1.697,0-3.553,2.711-3.759,3.019c-0.084,0.126-0.084,0.289,0,0.415
		c0.083,0.126,2.078,3.068,5.732,3.068c3.643,0,6.255-3.522,6.365-3.672c0.105-0.143,0.094-0.341-0.025-0.472
		C30.228,38.442,28.393,36.431,26.856,36.175z M23.965,41.922c-2.72,0-4.458-1.903-4.958-2.533c0.609-0.849,1.978-2.47,2.985-2.47
		c1.318,0,1.972,0.896,1.998,0.933c0.068,0.097,0.177,0.156,0.295,0.16c0.108,0.011,0.231-0.047,0.305-0.14
		c0.008-0.01,0.801-0.982,1.861-0.982c0.094,0,0.189,0.008,0.282,0.023c0.932,0.155,2.183,1.261,2.798,1.886
		C28.889,39.573,26.709,41.922,23.965,41.922z"/>
	<path fill="#FFFFFF" d="M25.27,38.403c-0.38,0.114-0.773,0.232-1.075,0.239l-0.053,0.001c-0.291,0-0.642-0.049-0.98-0.097
		c-0.343-0.048-0.696-0.098-1.003-0.098c-0.95,0-1.119,0.538-1.136,0.859c-0.012,0.242,0.074,0.467,0.251,0.653
		c0.591,0.622,2.136,0.67,2.595,0.67c0.062,0,0.121-0.001,0.177-0.002c0.637-0.017,2.431-0.415,3.011-1.112
		c0.212-0.255,0.227-0.495,0.202-0.652c-0.07-0.445-0.384-0.699-0.861-0.699C26.067,38.164,25.68,38.28,25.27,38.403z
		 M26.519,38.975c-0.056,0.315-1.617,0.88-2.492,0.903c-0.05,0.001-0.102,0.002-0.157,0.002c-0.949,0-1.811-0.184-2.052-0.437
		c-0.048-0.05-0.046-0.08-0.045-0.098c0.003-0.062,0.007-0.148,0.387-0.148c0.254,0,0.567,0.044,0.898,0.091
		c0.364,0.051,0.74,0.104,1.084,0.104l0.069-0.001c0.404-0.009,0.846-0.142,1.274-0.27c0.34-0.102,0.691-0.207,0.913-0.207
		c0.08,0,0.106,0.012,0.105,0.011C26.505,38.929,26.513,38.943,26.519,38.975z"/>
</g>
<g opacity="0.5">
	<path fill="#FFFFFF" d="M30.305,38.528c-0.077-0.085-1.912-2.096-3.449-2.352c-0.134-0.022-0.27-0.034-0.405-0.034
		c-0.972,0-1.744,0.572-2.144,0.946c-0.388-0.372-1.155-0.918-2.315-0.918c-1.697,0-3.553,2.711-3.759,3.019
		c-0.084,0.126-0.084,0.289,0,0.415c0.083,0.126,2.078,3.068,5.732,3.068c3.643,0,6.255-3.522,6.365-3.672
		C30.435,38.857,30.424,38.659,30.305,38.528z M27.057,39.517c-0.58,0.697-2.374,1.095-3.011,1.112
		c-0.056,0.001-0.115,0.002-0.177,0.002c-0.459,0-2.004-0.048-2.595-0.67c-0.177-0.186-0.263-0.411-0.251-0.653
		c0.017-0.321,0.186-0.859,1.136-0.859c0.307,0,0.66,0.05,1.003,0.098c0.338,0.048,0.689,0.097,0.98,0.097l0.053-0.001
		c0.302-0.007,0.695-0.125,1.075-0.239c0.41-0.123,0.797-0.239,1.128-0.238c0.477,0,0.791,0.254,0.861,0.699
		C27.284,39.022,27.269,39.262,27.057,39.517z"/>
</g>
</svg>
