<?xml version="1.0" encoding="utf-8"?>
<!-- Generator: Adobe Illustrator 17.0.2, SVG Export Plug-In . SVG Version: 6.00 Build 0)  -->
<!DOCTYPE svg PUBLIC "-//W3C//DTD SVG 1.1//EN" "http://www.w3.org/Graphics/SVG/1.1/DTD/svg11.dtd">
<svg version="1.1" id="Layer_1" xmlns="http://www.w3.org/2000/svg" xmlns:xlink="http://www.w3.org/1999/xlink" x="0px" y="0px"
	 width="176.638px" height="57px" viewBox="0 0 176.638 57" enable-background="new 0 0 176.638 57" xml:space="preserve">
<g>
	<path fill="#FFFFFF" d="M57.989,28.848c0.032,1.14,0.449,1.701,1.508,1.701c0.898,0,1.38-0.545,1.38-1.38
		c0-1.958-5.134-0.994-5.134-4.877c0-2.198,1.379-3.594,3.641-3.594c2.198,0,3.418,1.028,3.771,3.306H60.78
		c-0.031-0.787-0.513-1.284-1.299-1.284c-0.77,0-1.235,0.561-1.235,1.267c0,2.07,5.134,0.818,5.134,5.215
		c0,2.165-1.669,3.497-3.931,3.497c-2.712,0-3.899-1.428-3.899-3.85L57.989,28.848L57.989,28.848z"/>
	<path fill="#FFFFFF" d="M72.814,32.506h-2.47l-0.61-2.215h-2.727l-0.578,2.215h-2.47l3.24-11.616h2.247L72.814,32.506z
		 M68.37,24.291h-0.032L67.6,28.045h1.508L68.37,24.291z"/>
	<path fill="#FFFFFF" d="M73.969,20.89h2.439v9.37h3.112v2.246h-5.551V20.89z"/>
	<path fill="#FFFFFF" d="M84.864,20.697c2.92,0,4.363,2.375,4.363,6.001s-1.444,6-4.363,6c-2.921,0-4.364-2.374-4.364-6
		S81.944,20.697,84.864,20.697z M84.864,30.452c1.251,0,1.86-1.027,1.86-3.754s-0.609-3.754-1.86-3.754s-1.861,1.027-1.861,3.754
		S83.613,30.452,84.864,30.452z"/>
	<path fill="#FFFFFF" d="M98.503,20.89v11.616h-2.054l-3.434-7.733h-0.032v7.733h-2.15V20.89h2.278l3.209,7.123h0.031V20.89H98.503z
		"/>
	<path fill="#FFFFFF" d="M105.593,20.89h2.439v9.37h3.112v2.246h-5.551V20.89z"/>
	<path fill="#FFFFFF" d="M120.483,32.506h-2.47l-0.61-2.215h-2.727l-0.578,2.215h-2.47l3.24-11.616h2.247L120.483,32.506z
		 M116.039,24.291h-0.032l-0.739,3.754h1.508L116.039,24.291z"/>
	<path fill="#FFFFFF" d="M121.51,20.89h3.658c3,0,4.605,2.631,4.605,5.808c0,3.177-1.604,5.808-4.605,5.808h-3.658
		C121.51,32.506,121.51,20.89,121.51,20.89z M123.949,30.26h1.187c1.397,0,2.134-1.445,2.134-3.562c0-2.118-0.737-3.562-2.134-3.562
		h-1.187V30.26z"/>
	<path fill="#FFFFFF" d="M139.126,20.89v8.278c0,2.054-1.058,3.53-3.914,3.53s-3.915-1.476-3.915-3.53V20.89h2.439v7.894
		c0,1.155,0.384,1.668,1.476,1.668c1.091,0,1.476-0.513,1.476-1.668V20.89H139.126z"/>
	<path fill="#FFFFFF" d="M141.133,20.89h3.85c2.086,0,3.466,1.733,3.466,3.739c0,1.299-0.69,2.952-2.407,3.192l2.92,4.685h-2.792
		l-2.567-4.524h-0.032v4.524h-2.438V20.89z M143.571,26.024h0.802c0.995,0,1.572-0.482,1.572-1.445c0-0.962-0.577-1.444-1.572-1.444
		h-0.802V26.024z"/>
	<path fill="#FFFFFF" d="M157.77,20.89v11.616h-2.054l-3.432-7.733h-0.032v7.733h-2.15V20.89h2.278l3.209,7.123h0.031V20.89H157.77z
		"/>
	<path fill="#FFFFFF" d="M159.969,32.506V20.89h5.777v2.246h-3.337v2.15h3.337v2.247h-3.337v2.727h3.337v2.246H159.969z"/>
	<path fill="#FFFFFF" d="M167.88,20.89h3.85c2.086,0,3.466,1.733,3.466,3.739c0,1.299-0.69,2.952-2.407,3.192l2.92,4.685h-2.792
		l-2.567-4.524h-0.032v4.524h-2.438V20.89z M170.318,26.024h0.802c0.995,0,1.572-0.482,1.572-1.445c0-0.962-0.577-1.444-1.572-1.444
		h-0.802V26.024z"/>
</g>
<g>
	<path fill="#FFFFFF" d="M27.149,37.386c-1.09,0-1.906,1-1.914,1.01c-0.076,0.095-0.203,0.155-0.314,0.144
		c-0.122-0.004-0.234-0.065-0.303-0.165c-0.027-0.038-0.699-0.959-2.055-0.959c-1.036,0-2.445,1.667-3.071,2.54
		c0.515,0.648,2.302,2.606,5.1,2.606c2.822,0,5.064-2.416,5.725-3.211c-0.633-0.643-1.92-1.781-2.878-1.94
		C27.343,37.395,27.246,37.386,27.149,37.386z M27.98,39.416c0.025,0.161,0.01,0.409-0.208,0.671
		c-0.596,0.717-2.441,1.126-3.097,1.143c-0.058,0.002-0.119,0.002-0.182,0.002c-0.472,0-2.061-0.05-2.669-0.69
		c-0.181-0.191-0.271-0.423-0.258-0.671c0.017-0.33,0.191-0.883,1.168-0.883c0.315,0,0.679,0.051,1.031,0.101
		c0.348,0.049,0.708,0.1,1.008,0.1l0.055-0.001c0.311-0.007,0.715-0.128,1.106-0.245c0.421-0.126,0.819-0.246,1.16-0.246
		C27.585,38.696,27.908,38.958,27.98,39.416z"/>
	<path fill="#FFFFFF" d="M19.43,26.176c-0.654-0.377-1.331-0.766-2.166-0.766c-0.207,0-0.421,0.024-0.636,0.072
		c-1.64,0.362-2.58,1.754-2.86,2.232c0.239,0.405,1.085,1.466,3.159,1.28c1.668-0.15,3.995-1.678,4.32-2.024
		c-0.009-0.021-0.029-0.049-0.052-0.077C20.552,26.822,19.982,26.494,19.43,26.176z M16.994,28.799c-0.834,0-1.51-0.676-1.51-1.51
		s0.676-1.51,1.51-1.51s1.51,0.676,1.51,1.51C18.503,28.123,17.828,28.799,16.994,28.799z"/>
	<path fill="#FFFFFF" d="M26.155,39.681c-0.44,0.132-0.895,0.269-1.311,0.278l-0.071,0.001c-0.354,0-0.741-0.055-1.115-0.107
		c-0.341-0.048-0.663-0.093-0.924-0.093c-0.391,0-0.395,0.088-0.398,0.152c-0.001,0.018-0.003,0.049,0.047,0.101
		c0.247,0.26,1.135,0.45,2.11,0.45c0.056,0,0.11-0.001,0.161-0.002c0.9-0.023,2.505-0.605,2.563-0.929
		c-0.006-0.033-0.014-0.048-0.016-0.052c0.002,0.001-0.026-0.012-0.108-0.012C26.866,39.467,26.505,39.576,26.155,39.681z"/>
	<path fill="#FFFFFF" d="M24.381,51.09c-10.809,0-19.971-7.214-22.979-17.104c0.701,5.747,2.739,10.929,5.919,14.904
		C11.567,54.196,17.466,57,24.381,57c7.088,0,13.053-2.869,17.248-8.298c2.994-3.873,4.942-8.917,5.675-14.532
		C44.24,43.965,35.123,51.09,24.381,51.09z"/>
	<path fill="#FFFFFF" d="M1,0.213l0.09,20.796C3.725,10.547,13.167,2.782,24.381,2.782c11.161,0,20.568,7.691,23.255,18.078V0.213H1
		z"/>
	<path fill="#FFFFFF" d="M24.381,3.553c-12.822,0-23.254,10.49-23.254,23.383c0,12.894,10.432,23.383,23.254,23.383
		c12.823,0,23.255-10.489,23.255-23.383C47.636,14.043,37.204,3.553,24.381,3.553z M31.138,39.556
		c-0.113,0.154-2.799,3.777-6.546,3.777c-3.758,0-5.81-3.026-5.896-3.155s-0.086-0.298,0-0.427c0.212-0.318,2.121-3.106,3.866-3.106
		c1.192,0,1.981,0.561,2.381,0.944c0.412-0.385,1.205-0.973,2.205-0.973c0.139,0,0.279,0.012,0.416,0.035
		c1.581,0.263,3.468,2.332,3.548,2.42C31.235,39.206,31.246,39.408,31.138,39.556z M16.996,29.761
		c-0.191,0.017-0.373,0.025-0.546,0.025c-2.671,0-3.444-1.858-3.476-1.937l0.011-0.311c0.045-0.093,1.136-2.294,3.475-2.81
		c0.27-0.059,0.54-0.09,0.803-0.09c1.041,0,1.843,0.462,2.55,0.869c0.562,0.324,1.047,0.603,1.564,0.625l0.218,0.079
		c0.332,0.256,0.574,0.723,0.32,1.147C21.639,27.823,18.892,29.59,16.996,29.761z M35.095,29.31
		c-1.034,0.714-2.345,1.076-3.898,1.076c-0.515,0-1.046-0.038-1.622-0.117c-2.097-0.286-4.594-2.112-6.417-3.446l-0.257-0.187
		c-1.642-1.198-4.209-2.597-6.037-2.597c-0.143,0-0.28,0.009-0.409,0.026c-1.065,0.143-3.603,0.841-4.156,4.218
		c-0.53,3.232-0.047,9.669,3.456,14.154c3.1,3.968,8.33,5.569,8.383,5.585l-0.113,0.755c-9.73-0.07-15.364-6.397-17.856-10.162
		c-2.469-3.73-4.855-10.028-2.2-18.856C6.453,11.5,15.095,5.031,23.642,5.031c7.357,0,9.685,3.89,11.077,6.215
		c0.082,0.137,0.161,0.269,0.237,0.393c1.136,1.857,2.57,6.147,2.989,10.441C38.367,26.41,36.825,28.114,35.095,29.31z"/>
	<path fill="#FFFFFF" d="M34.298,12.041c-0.077-0.126-0.157-0.26-0.241-0.4c-1.307-2.184-3.495-5.84-10.415-5.84
		c-8.226,0-16.543,6.228-18.935,14.179c-2.569,8.542-0.274,14.617,2.104,18.209c2.668,4.03,7.338,8.774,14.829,9.668
		c-1.883-0.883-4.553-2.462-6.493-4.946c-3.942-5.046-4.085-11.857-3.61-14.753c0.655-3.993,3.85-4.727,4.813-4.857
		c0.163-0.022,0.335-0.033,0.512-0.033c2.597,0,5.863,2.287,6.492,2.745l0.257,0.188c1.757,1.285,4.163,3.044,6.066,3.304
		c0.542,0.074,1.038,0.11,1.518,0.11c1.393,0,2.557-0.316,3.459-0.939c1.431-0.99,2.923-2.391,2.521-6.522
		C36.77,17.976,35.39,13.825,34.298,12.041z"/>
</g>
</svg>
